# File created by Blade
# Date/Time:  Wed Jan 21 19:13:57 2015
# Frame Rate: 120.000 fps
#------------------------------------------------------
:FULLY-SPECIFIED
:DEGREES
1014
root -1.714643 32.608179 -1.857792 48.633955 3.245024 1.987416
RightUpLeg -38.331937 -5.596524 5.334883
RightLeg -2.526105 -0.000000 0.000000
RightFoot -10.326946 4.229454 19.081893
RightToeBase 19.141368 -0.000000 -0.000000
LeftUpLeg -41.180536 -1.379974 -2.332483
LeftLeg 2.458754 -0.000000 -0.000000
LeftFoot -9.598755 -7.216753 -7.619982
LeftToeBase 9.134066 -0.000000 -0.000000
Spine -47.888621 -0.307999 2.342700
RightShoulder -16.377806 6.253785 -23.763785
RightArm -4.660899 -38.727615 99.173786
RightForeArm 21.997086 -0.000000 10.503537
RightHand 13.886383 -0.000000 1.075805
RightHandThumb1 -24.326973 -0.000000 -32.862282
LeftShoulder -6.070671 9.395467 22.336372
LeftArm 15.948717 38.573634 -91.463676
LeftForeArm 3.387783 -0.000000 13.861214
LeftHand -14.046264 -0.000000 -0.132865
LeftHandThumb1 -26.253704 0.000000 33.147579
Head -4.685975 2.436859 10.732092
1015
root -1.720503 32.623545 -1.892527 48.577503 3.237284 1.989719
RightUpLeg -38.374556 -5.669861 5.406312
RightLeg -2.486402 -0.000000 0.000000
RightFoot -10.173373 4.259996 19.055533
RightToeBase 19.099318 -0.000000 -0.000000
LeftUpLeg -41.206774 -1.389859 -2.307808
LeftLeg 2.477556 -0.000000 -0.000000
LeftFoot -9.441350 -7.216880 -7.695171
LeftToeBase 9.149752 -0.000000 -0.000000
Spine -47.853453 -0.285582 2.349911
RightShoulder -16.291828 6.200758 -23.861304
RightArm -4.685387 -38.347407 99.160645
RightForeArm 22.150773 -0.000000 10.433662
RightHand 13.979878 0.000000 0.972386
RightHandThumb1 -24.326973 -0.000000 -32.862282
LeftShoulder -6.018011 9.416794 22.591494
LeftArm 15.758656 38.316668 -91.568226
LeftForeArm 3.604001 -0.000000 13.908314
LeftHand -14.084722 -0.000000 -0.225313
LeftHandThumb1 -26.253704 0.000000 33.147579
Head -4.405782 2.430452 10.899328
1016
root -1.725506 32.638673 -1.926028 48.513870 3.233734 1.994496
RightUpLeg -38.399882 -5.722386 5.445372
RightLeg -2.452865 -0.000000 0.000000
RightFoot -10.023975 4.283729 19.078464
RightToeBase 19.089106 -0.000000 -0.000000
LeftUpLeg -41.229903 -1.395956 -2.291281
LeftLeg 2.515158 -0.000000 -0.000000
LeftFoot -9.300625 -7.234586 -7.759725
LeftToeBase 9.103105 -0.000000 -0.000000
Spine -47.817825 -0.275932 2.353653
RightShoulder -16.174262 6.235729 -23.999471
RightArm -4.870007 -37.983185 99.212012
RightForeArm 22.235839 -0.000000 10.459061
RightHand 13.923435 -0.000000 1.040585
RightHandThumb1 -24.326973 -0.000000 -32.862282
LeftShoulder -5.946848 9.417742 22.871393
LeftArm 15.608378 38.223704 -91.598817
LeftForeArm 3.735063 -0.000000 13.963285
LeftHand -13.965303 -0.000000 -0.424683
LeftHandThumb1 -26.253704 0.000000 33.147579
Head -4.108004 2.359818 11.036303
1017
root -1.731529 32.652669 -1.958654 48.429715 3.230941 2.001856
RightUpLeg -38.383010 -5.764498 5.465664
RightLeg -2.460423 -0.000000 0.000000
RightFoot -9.866979 4.310762 19.107095
RightToeBase 19.137161 -0.000000 -0.000000
LeftUpLeg -41.228560 -1.383689 -2.284619
LeftLeg 2.544076 -0.000000 -0.000000
LeftFoot -9.143008 -7.290052 -7.821218
LeftToeBase 9.034293 -0.000000 -0.000000
Spine -47.760707 -0.264675 2.329875
RightShoulder -16.066009 6.283678 -24.161045
RightArm -5.102221 -37.670019 99.308739
RightForeArm 22.184809 -0.000000 10.517048
RightHand 13.893750 -0.000000 1.097569
RightHandThumb1 -24.326973 -0.000000 -32.862282
LeftShoulder -5.905741 9.337009 23.160767
LeftArm 15.384206 38.181294 -91.652022
LeftForeArm 3.990999 -0.000000 14.052202
LeftHand -13.795292 -0.000000 -0.591834
LeftHandThumb1 -26.253704 0.000000 33.147579
Head -3.845012 2.252011 11.208605
